<svg width="509" height="587" viewBox="0 0 509 587" fill="none" xmlns="http://www.w3.org/2000/svg">
<path d="M508.22 316.161L507.805 316.482L158.168 585.874L157.877 586.098L157.576 585.888C101.526 546.724 58.4108 498.663 31.5437 445.371C4.67541 392.077 -5.22781 334.971 2.60029 278.425C10.4283 221.88 35.7771 167.411 76.6901 119.184C117.602 70.9571 172.995 30.2464 238.623 0.157227L238.967 0L508.22 316.161ZM238.695 1.22461C173.332 31.2458 118.186 71.8144 77.4528 119.83C36.6489 167.929 11.3897 222.225 3.59053 278.562C-4.2085 334.897 5.65494 391.8 32.4362 444.921C59.1705 497.949 102.061 545.812 157.848 584.856L506.778 316.01L238.695 1.22461Z" fill="#9AA676"/>
</svg>

